<svg class="" width="25" height="25" viewBox="0 0 1024 1024" xmlns="http://www.w3.org/2000/svg" style="display: inline-block; vertical-align: middle;"><path d="M870.651 148.804c-91.844-91.789-218.696-148.558-358.807-148.558-280.331 0-507.585 227.253-507.585 507.585 0 93.259 25.15 180.643 69.039 255.741l-1.298-2.404-72.001 262.833 269.021-70.615c69.943 38.851 153.391 61.72 242.181 61.72 0.122 0 0.244 0 0.366 0h0.206c281.187-0.114 509.419-226.682 512.224-507.221l0.002-0.266c-1.575-140.715-59.961-267.492-153.254-358.721l-0.094-0.092zM511.774 929.599c-0.104 0-0.227 0-0.349 0-79.143 0-153.186-21.838-216.432-59.816l1.906 1.061-15.309-9.153-159.537 41.899 42.511-155.669-10.056-16.115c-38.537-62.502-61.369-138.246-61.369-219.323 0-233.393 189.202-422.595 422.595-422.595 231.682 0 419.818 186.438 422.565 417.469l0.002 0.26c-2.532 233.594-192.485 421.983-426.439 421.983-0.031 0-0.062 0-0.093 0h0.005zM743.086 613.749c-12.57-6.446-74.966-37.032-86.633-41.157s-20.111-6.446-28.588 6.446-32.681 41.157-40.223 49.827-14.858 9.669-27.427 3.223c-73.943-30.063-133.557-82.673-171.667-149.181l-0.89-1.686c-12.892-22.561 12.892-20.788 37.257-69.261 1.421-2.938 2.251-6.39 2.251-10.035 0-4.485-1.257-8.677-3.437-12.242l0.059 0.103c-3.223-6.446-28.588-68.81-39.095-94.175-10.281-24.688-20.788-21.272-28.588-21.723s-15.76-0.451-24.237-0.451c-13.473 0.376-25.475 6.371-33.8 15.714l-0.041 0.047c-27.355 26.015-44.37 62.682-44.37 103.323 0 0.886 0.008 1.769 0.024 2.651l-0.002-0.132c4.474 50.067 23.173 95.060 51.974 131.745l-0.407-0.538c6.446 8.444 89.373 136.46 216.68 191.541 80.574 34.744 111.998 37.709 152.221 31.778 36.496-7.583 66.783-29.639 85.149-59.762l0.324-0.572c5.655-12.551 8.949-27.208 8.949-42.635 0-6.287-0.547-12.445-1.596-18.431l0.092 0.636c-2.933-5.705-11.409-8.895-23.979-15.083z" fill="rgb(55, 178, 0)" style="fill: rgb(255, 255, 255);"></path></svg>